Coordinates
version=1
nRows=26
nColumns=24
inDegrees=yes

Units are S.I. units (second, meters, Newtons, ...)
Angles are in degrees.

endheader
time	pelvis_tilt	pelvis_list	pelvis_rotation	pelvis_tx	pelvis_ty	pelvis_tz	hip_flexion_r	hip_adduction_r	hip_rotation_r	knee_angle_r	ankle_angle_r	subtalar_angle_r	mtp_angle_r	hip_flexion_l	hip_adduction_l	hip_rotation_l	knee_angle_l	ankle_angle_l	subtalar_angle_l	mtp_angle_l	lumbar_extension	lumbar_bending	lumbar_rotation
      0.69133333	     -5.97793944	      0.30379193	      2.75905724	     -0.38239630	      1.04741319	      0.31819532	     20.28580570	      1.22232061	     -2.43270471	    -28.58005749	     13.13016570	     -4.57182399	      7.58918907	     21.33846755	     -4.45034052	     -4.34571005	    -72.75214129	      7.41603657	      3.27885985	      9.85027615	     -8.10686243	      2.83073544	     -0.84523166
      0.69550000	     -5.95198419	      0.45375397	      2.69854837	     -0.37700733	      1.04902540	      0.31825997	     19.67434963	      1.09913839	     -2.35759699	    -28.04294340	     13.09436103	     -4.52838413	      7.57548488	     21.81351247	     -4.24243381	     -4.50235111	    -72.38293505	      7.63518582	      3.58828250	      9.86615535	     -8.13596270	      2.66120671	     -0.71612659
      0.69966667	     -5.92275290	      0.59841737	      2.63255632	     -0.37160873	      1.05064649	      0.31831374	     19.05197386	      0.98086937	     -2.28101361	    -27.48603509	     13.03707396	     -4.49189266	      7.56204867	     22.26945833	     -4.04320874	     -4.66939406	    -71.94539020	      7.84150160	      3.89753707	      9.89026388	     -8.16969174	      2.50069576	     -0.57875923
      0.70383333	     -5.88975677	      0.75286928	      2.55778484	     -0.36621771	      1.05224164	      0.31835613	     18.42825931	      0.84958077	     -2.20535223	    -26.93028356	     12.98038314	     -4.44677671	      7.55047409	     22.70347399	     -3.83510827	     -4.85163134	    -71.43927194	      8.03319338	      4.20021195	      9.92038408	     -8.20962272	      2.32622483	     -0.44406117
      0.70800000	     -5.87265876	      0.90149050	      2.47203163	     -0.36082104	      1.05377735	      0.31840540	     17.82150926	      0.72488197	     -2.12059022	    -26.36819195	     12.90910787	     -4.40346333	      7.53959439	     23.13963106	     -3.63958405	     -5.04841578	    -70.87408188	      8.21276734	      4.49200447	      9.95753440	     -8.23284256	      2.15672778	     -0.29634353
      0.71216667	     -5.82070074	      1.04644137	      2.38198685	     -0.35543728	      1.05535584	      0.31844827	     17.17338683	      0.60359926	     -2.03816694	    -25.79078392	     12.82313197	     -4.36512912	      7.53007607	     23.52180647	     -3.45247649	     -5.25241405	    -70.24457056	      8.37712000	      4.76714443	     10.00080994	     -8.30042549	      1.99098859	     -0.14682068
      0.71633333	     -5.79192425	      1.20784678	      2.28063214	     -0.35005299	      1.05684892	      0.31849596	     16.55835846	      0.46155281	     -1.95207698	    -25.22692828	     12.74442968	     -4.31800228	      7.52267882	     23.90890209	     -3.25114573	     -5.47546845	    -69.55128611	      8.52149081	      5.01365224	     10.04729736	     -8.33479261	      1.80374597	      0.00071068
      0.72050000	     -5.78838814	      1.35892468	      2.18090461	     -0.34466588	      1.05826823	      0.31852715	     15.97192775	      0.32337421	     -1.89018714	    -24.65890599	     12.62267561	     -4.23334376	      7.51809461	     24.31220582	     -3.06146613	     -5.70089682	    -68.80715143	      8.63435602	      5.20663274	     10.07140456	     -8.33003715	      1.62420392	      0.07212661
      0.72466667	     -5.71268531	      1.50770779	      2.06127212	     -0.33931978	      1.05974185	      0.31858434	     15.31078958	      0.19834657	     -1.78336471	    -24.08967815	     12.56041657	     -4.22703960	      7.51368270	     24.61670458	     -2.88611517	     -5.94004210	    -68.00380261	      8.77742208	      5.43936300	     10.12479229	     -8.43939203	      1.46172821	      0.29972967
      0.72883333	     -5.67707729	      1.65921880	      1.94337761	     -0.33395753	      1.06112556	      0.31863197	     14.69502104	      0.06308373	     -1.68643435	    -23.52192497	     12.45340608	     -4.18382744	      7.51066975	     24.94755282	     -2.70505724	     -6.17736755	    -67.14149584	      8.87371424	      5.59810613	     10.18343232	     -8.49322369	      1.27719612	      0.47974021
      0.73300000	     -5.65230363	      1.80876237	      1.81865673	     -0.32861054	      1.06242683	      0.31867650	     14.09962143	     -0.07308875	     -1.59361448	    -22.96523551	     12.35107499	     -4.13537175	      7.50947524	     25.27574035	     -2.52950969	     -6.42204968	    -66.23131836	      8.95451823	      5.73244796	     10.24420547	     -8.53298844	      1.09918710	      0.64876658
      0.73716667	     -5.65033784	      1.96612537	      1.68786858	     -0.32327884	      1.06362092	      0.31871686	     13.54590393	     -0.22390932	     -1.51706300	    -22.43908110	     12.24126261	     -4.06648383	      7.50832690	     25.61202957	     -2.34719546	     -6.67411070	    -65.26871480	      9.01313952	      5.84247674	     10.27785506	     -8.53748545	      0.93337334	      0.74887128
      0.74133333	     -5.61504905	      2.11973392	      1.55407719	     -0.31795110	      1.06482117	      0.31878133	     12.95048212	     -0.36744003	     -1.42597874	    -21.89744271	     12.17341925	     -4.02721460	      7.50983220	     25.89441279	     -2.17516523	     -6.92775913	    -64.25542219	      9.05786971	      5.90549461	     10.32700866	     -8.58804915	      0.73064074	      0.94511269
      0.74550000	     -5.60340294	      2.25800092	      1.41689666	     -0.31265271	      1.06590514	      0.31883189	     12.39240217	     -0.49801706	     -1.33578175	    -21.37107856	     12.07496856	     -3.97613177	      7.51218611	     26.19216377	     -2.01814396	     -7.17056319	    -63.20343570	      9.08748853	      5.95598819	     10.37755227	     -8.61486029	      0.56025062	      1.12246410
      0.74966667	     -5.63075139	      2.38860640	      1.28791544	     -0.30734589	      1.06685894	      0.31885956	     11.88001554	     -0.62735193	     -1.26548301	    -20.85043300	     11.96270376	     -3.87801243	      7.51209441	     26.51989759	     -1.86708733	     -7.40487175	    -62.11181366	      9.10373954	      5.99200680	     10.39750892	     -8.58676812	      0.40049395	      1.19647915
      0.75383333	     -5.57229051	      2.53554852	      1.13730437	     -0.30209928	      1.06790822	      0.31891840	     11.29070263	     -0.76877418	     -1.16467293	    -20.35522566	     11.90463099	     -3.86332274	      7.51628919	     26.72639545	     -1.70168184	     -7.64232092	    -60.94700305	      9.08512584	      5.96168958	     10.45022088	     -8.68834611	      0.22374773	      1.45517654
      0.75800000	     -5.58041861	      2.67375977	      0.99328262	     -0.29684674	      1.06875044	      0.31896597	     10.78351539	     -0.90752412	     -1.08575372	    -19.87899350	     11.83254271	     -3.80881234	      7.51991065	     26.99603749	     -1.54644628	     -7.87495417	    -59.75384421	      9.05592576	      5.93756384	     10.49181132	     -8.69004061	      0.05661068	      1.61125474
      0.76216667	     -5.60811515	      2.79526339	      0.85163002	     -0.29161349	      1.06947420	      0.31899562	     10.30607487	     -1.03043175	     -1.00702468	    -19.41671016	     11.76662974	     -3.74928179	      7.52409141	     27.27553651	     -1.40516708	     -8.08694372	    -58.52564380	      9.01304134	      5.88907671	     10.53334652	     -8.67667693	     -0.09456937	      1.78098317
      0.76633333	     -5.63178149	      2.91786932	      0.70777216	     -0.28640475	      1.07014509	      0.31902265	      9.83728920	     -1.15803591	     -0.93812310	    -18.97670272	     11.68261778	     -3.67760600	      7.52515630	     27.53137480	     -1.26238098	     -8.29180380	    -57.24643156	      8.95429333	      5.85431745	     10.55516518	     -8.67084210	     -0.22919846	      1.88625968
      0.77050000	     -5.64339441	      3.03280501	      0.56912925	     -0.28120583	      1.07075245	      0.31904292	      9.35335700	     -1.27709682	     -0.86279648	    -18.53195436	     11.66339265	     -3.62516895	      7.52914698	     27.76007146	     -1.12223954	     -8.47506307	    -55.92891678	      8.86755554	      5.73012453	     10.59262632	     -8.68320624	     -0.38572647	      2.09539046
      0.77466667	     -5.69286703	      3.13206510	      0.43050838	     -0.27602394	      1.07120997	      0.31904978	      8.92962838	     -1.38303873	     -0.80443748	    -18.12392766	     11.60153544	     -3.55961963	      7.52945550	     28.01568236	     -1.00003920	     -8.64819834	    -54.57734512	      8.78125522	      5.67273422	     10.61268249	     -8.64546376	     -0.49650464	      2.20571898
      0.77883333	     -5.73770414	      3.21770294	      0.30177355	     -0.27085186	      1.07160280	      0.31903790	      8.49641680	     -1.47431897	     -0.73788622	    -17.70720569	     11.58774078	     -3.50681085	      7.53032540	     28.25225385	     -0.88162601	     -8.78506482	    -53.18777711	      8.66599946	      5.52781445	     10.64619237	     -8.62297799	     -0.61389973	      2.40143751
      0.78300000	     -5.79755226	      3.31778167	      0.16887228	     -0.26569282	      1.07188682	      0.31903036	      8.10142430	     -1.58546709	     -0.69256094	    -17.33494462	     11.55370554	     -3.44007193	      7.52921990	     28.48162437	     -0.75261685	     -8.92824029	    -51.74794040	      8.54468195	      5.44951192	     10.66017307	     -8.57736574	     -0.72807005	      2.49045728
      0.78716667	     -5.86090818	      3.39391365	      0.04544923	     -0.26054890	      1.07208991	      0.31899680	      7.71036971	     -1.67083830	     -0.64755214	    -16.96340456	     11.54807244	     -3.37782204	      7.52701580	     28.70233568	     -0.63764650	     -9.03020644	    -50.27559284	      8.40061021	      5.31105032	     10.67336666	     -8.53007096	     -0.82125850	      2.61824273
      0.79133333	     -5.93408352	      3.45886489	     -0.07131633	     -0.25541249	      1.07219501	      0.31894452	      7.33599252	     -1.74607501	     -0.60913467	    -16.60630091	     11.55146286	     -3.31396990	      7.52359136	     28.91724520	     -0.52904452	     -9.10764041	    -48.76951286	      8.24557792	      5.17180859	     10.68487974	     -8.47389401	     -0.90455197	      2.74276743
      0.79550000	     -6.01902751	      3.51926389	     -0.18494300	     -0.25028231	      1.07220315	      0.31887708	      6.98319440	     -1.81788289	     -0.57831587	    -16.26858364	     11.57258244	     -3.24961540	      7.51857754	     29.12511854	     -0.41882681	     -9.16004702	    -47.22265825	      8.07790878	      5.01712526	     10.69609411	     -8.40504481	     -0.97607147	      2.86807167
